<svg xmlns="http://www.w3.org/2000/svg" width="512" height="512" viewBox="0 0 512 512">
  <defs>
    <style>
      .cls-1 {
        fill: #eaeaea;
        fill-rule: evenodd;
      }
    </style>
  </defs>
  <path id="Rectángulo_3_copia" data-name="Rectángulo 3 copia" class="cls-1" d="M0.166,425.426c29.95-.218,63.849-62.4,127.849-62.411,64.033,0.007,64.033,62.193,127.973,62.139,64.046,0.054,64.046-62.132,128.047-62.31,63.957,0.178,98.1,62.357,127.928,62.53,0,0-.049,29.614.037,29.7C482.019,455,447.992,392.9,384.051,392.908c-64.017-.01-64.017,62.08-128.1,62.09-63.9-.007-63.9-62.1-127.959-62.09C64.014,392.9,30.442,454.988.009,455-0.26,455.064.07,425.208,0.166,425.426Z"/>
  <path id="Rectángulo_3_copia_2" data-name="Rectángulo 3 copia 2" class="cls-1" d="M0.166,272.426c29.95-.218,63.849-62.4,127.849-62.411,64.033,0.007,64.033,62.193,127.973,62.139,64.046,0.054,64.046-62.132,128.047-62.31,63.957,0.178,98.1,62.357,127.928,62.53,0,0-.049,29.614.037,29.7C482.019,302,447.992,239.9,384.051,239.908c-64.017-.01-64.017,62.08-128.1,62.09-63.9-.007-63.9-62.1-127.959-62.09C64.014,239.9,30.442,301.988.009,302-0.26,302.064.07,272.208,0.166,272.426Z"/>
  <path id="Rectángulo_3_copia_3" data-name="Rectángulo 3 copia 3" class="cls-1" d="M0.166,119.426c29.95-.218,63.849-62.4,127.849-62.411,64.033,0.007,64.033,62.193,127.973,62.139,64.046,0.054,64.046-62.132,128.047-62.31,63.957,0.178,98.1,62.357,127.928,62.53,0,0-.049,29.614.037,29.7C482.019,149,447.992,86.9,384.051,86.908c-64.017-.01-64.017,62.08-128.1,62.09-63.9-.007-63.9-62.1-127.959-62.09C64.014,86.9,30.442,148.988.009,149-0.26,149.064.07,119.208,0.166,119.426Z"/>
</svg>
