<svg id="Capa_1" data-name="Capa 1" xmlns="http://www.w3.org/2000/svg" viewBox="0 0 253.77 199.69"><defs><style>.cls-1{fill:#2e2e2d;}</style></defs><path class="cls-1" d="M189.05,172.3c2.8,4,4.34,8.49,1.39,12.83a54.19,54.19,0,0,1-4.18,4.68,8.27,8.27,0,0,0-2.33,5.17,3,3,0,0,0,0,.42c.59,6.79,9.75,2.61,13.61,3.22,5.85.92,9.27,7,15.64,7.53,4.57.38,7.9-1.31,12.47-1.73,13.49-1.24,24.19,10.78,25.07,11.69,4.13,4.27,8.5,10.52,5.14,15.38-1.27,1.84-3.44,3-4.67,4.84-3.62,5.45,3.64,11.58,8.16,15.59,4.93,4.27-1.92,9-14.5-2.26-3.86-3.45-4.21-9.77-1.4-14,1.11-1.7,2.71-3.15,3.34-5.06,1.31-4-1.9-7.86-4.87-10.88-4.51-4.56-10.39-9.54-16.73-8-3.33.83-6.11,3.43-9.55,3.61-4.82.25-8.25-4.12-11.77-7.29-2.67-2.4-6.61-4.2-10.09-2.26-3.23,1.8-2.55,4.17-2.39,7.16.2,4.07.55,6.28-2.11,10-2.1,2.93-4.68,6-4.33,9.56.32,3.27,3,5.76,5.22,8.28,7.9,9.13-3.38,11-5,18.93-1.33,6.52,8.08,10.46,9.71,16.93,1.34,5.33-.84,12.94,4.25,15.84,4.5,2.56,10.81-1.64,15.77-.85,7,1.13,12,7.56,19.52,7.83,4.88.17,9.16-2.49,13.42-4.46,3.44-1.58,7.07-3,10.89-3.12,8.59-.28,14.07,9.68,23.14,6.57,6.52-2.24,9.85-8.48,14.39-13,4.38-4.38,14.84-7.43,14.34-14.71-.26-3.78-3.65-7.61-4.22-11.7-1.7-12.25,9.54-20.54,1.5-32.14-2.8-4-4.34-8.49-1.4-12.82a22.06,22.06,0,0,1,2.53-2.94c1.9-1.83,3.66-3.94,3.72-6.46.12-4.52-4.69-4.49-8-4.24-4.91.38-8.5,1.25-12.91-1.6-8.3-5.37-12-9-22.26-3.42-7.73,3.32-20.71-9.53-23.41-12.33-4.14-4.27-8.5-10.51-5.15-15.37,1.27-1.84,3.44-3,4.68-4.84,3.62-5.46-3.64-11.59-8.16-15.6-4.93-4.26,1.92-8.95,14.5,2.27,3.86,3.44,4.2,9.76,1.4,14-1.12,1.7-2.71,3.16-3.34,5.07-1.31,4,1.9,7.86,4.87,10.87,4.5,4.57,10.39,9.55,16.72,8,3.34-.84,6.12-3.44,9.56-3.62,4.81-.25,8.25,4.13,11.77,7.29,2.66,2.4,6.61,4.2,10.09,2.27,3.23-1.8,2.54-4.17,2.39-7.17-.21-4.06-.55-6.27,2.1-10,2.11-2.92,4.69-6,4.34-9.56-.32-3.27-3-5.75-5.23-8.28-7.9-9.12,3.39-11,5-18.93,1.33-6.51-8.09-10.46-9.71-16.92-1.35-5.34.83-13-4.25-15.84-4.5-2.57-10.82,1.64-15.77.84-7-1.13-12-7.56-19.52-7.82-4.88-.18-9.16,2.49-13.42,4.45-3.44,1.59-7.08,3-10.89,3.12-8.59.28-14.08-9.68-23.15-6.57-6.52,2.24-9.85,8.48-14.38,13-4.38,4.37-14.84,7.42-14.35,14.7.26,3.78,3.66,7.62,4.23,11.7C192.25,152.41,181,160.7,189.05,172.3Z" transform="translate(-58.98 -99.73)"/><path class="cls-1" d="M82.69,196.42c0,.26,0,.48,0,.67v.53h0l0,.39-.26-.31h0l-.35-.41-.48-.52L75.45,190H71.93v12.53h3.54v-6.88c0-.23,0-.42,0-.58l0-.45v-.12l.23.27.36.42h0l.43.48,6.27,6.85h3.51V190H82.69Z" transform="translate(-58.98 -99.73)"/><path class="cls-1" d="M103.3,193.57a4.92,4.92,0,0,0-.46-.89,3.58,3.58,0,0,0-.45-.61h0a6.12,6.12,0,0,0-1.43-1.2,8.14,8.14,0,0,0-1.76-.76,10.05,10.05,0,0,0-1.92-.39,11.92,11.92,0,0,0-1.45-.07h-.47v0a11.29,11.29,0,0,0-2.93.51,6.92,6.92,0,0,0-2.37,1.27,5.8,5.8,0,0,0-1.57,2.05,6.54,6.54,0,0,0-.58,2.83,6.69,6.69,0,0,0,.52,2.67A5.7,5.7,0,0,0,90,201.08a7.13,7.13,0,0,0,2.51,1.37,11.21,11.21,0,0,0,3.42.48,10.75,10.75,0,0,0,3.41-.49,6.74,6.74,0,0,0,2.48-1.4,5.83,5.83,0,0,0,1.51-2.16,7.55,7.55,0,0,0,.36-4.15A7.58,7.58,0,0,0,103.3,193.57Zm-7.56-1.22h.18a4.54,4.54,0,0,1,1.48.23,3.9,3.9,0,0,1,1.36.78,3.8,3.8,0,0,1,.92,1.26,4,4,0,0,1,.35,1.7,4.34,4.34,0,0,1-.27,1.54,3.57,3.57,0,0,1-.8,1.25,3.9,3.9,0,0,1-1.29.84,4.82,4.82,0,0,1-1.82.31,5.07,5.07,0,0,1-1.46-.19,4.51,4.51,0,0,1-1-.44,2.71,2.71,0,0,1-.61-.49l-.33-.41-.22-.3L92,198a3.25,3.25,0,0,1-.2-.68,4.15,4.15,0,0,1-.09-.92,4,4,0,0,1,.36-1.77,3.61,3.61,0,0,1,.92-1.23,3.85,3.85,0,0,1,1.29-.74A5.09,5.09,0,0,1,95.74,192.35Z" transform="translate(-58.98 -99.73)"/><path class="cls-1" d="M116.44,193.42a4,4,0,0,1,1.37-.75,5.75,5.75,0,0,1,1.76-.26,6,6,0,0,1,1.45.16,3.84,3.84,0,0,1,1,.4,3.33,3.33,0,0,1,.66.49h0l.47.51.1.1,4-.53-.52-.82a5.2,5.2,0,0,0-.45-.6,4.88,4.88,0,0,0-.64-.65,6.2,6.2,0,0,0-.92-.65,7.35,7.35,0,0,0-1.37-.63,9.48,9.48,0,0,0-1.36-.36,11.56,11.56,0,0,0-1.25-.16l-1.06,0-1.12,0a11.3,11.3,0,0,0-1.68.24,9,9,0,0,0-1.89.65,5.94,5.94,0,0,0-1.79,1.29,5.85,5.85,0,0,0-1.33,2.05,6.38,6.38,0,0,0-.45,2.36,7.73,7.73,0,0,0,.36,2.28,5.43,5.43,0,0,0,1.26,2.17,6.6,6.6,0,0,0,2.42,1.6,10,10,0,0,0,3.78.62,10.67,10.67,0,0,0,2.86-.4,6.13,6.13,0,0,0,2-1.05v1.09h3v-7H119.8v2.71h3.93l-.09.2a2.65,2.65,0,0,1-.66.68,4.93,4.93,0,0,1-1.4.7,6,6,0,0,1-1.92.29,5.3,5.3,0,0,1-1.92-.31,3.79,3.79,0,0,1-1.37-.82,3.24,3.24,0,0,1-.85-1.22,4.15,4.15,0,0,1-.29-1.55,4.06,4.06,0,0,1,.32-1.66A3.49,3.49,0,0,1,116.44,193.42Z" transform="translate(-58.98 -99.73)"/><path class="cls-1" d="M139.79,197.15h0v.23l0,.48-.1.48-.15.32-.18.23a2.21,2.21,0,0,1-.84.56,5.37,5.37,0,0,1-1.39.3h-.58l-1.31,0a3.84,3.84,0,0,1-1.34-.36,2,2,0,0,1-.63-.42l-.37-.51a1.7,1.7,0,0,1-.19-.59,5.87,5.87,0,0,1-.05-.74v-7.31h-3.7v7.23c0,.36,0,.73,0,1.11a4.41,4.41,0,0,0,.23,1.17,3.91,3.91,0,0,0,.62,1.15,4.76,4.76,0,0,0,1.21,1.07,6.11,6.11,0,0,0,1.2.6,9.16,9.16,0,0,0,1.06.3,10.14,10.14,0,0,0,1.34.23c.44,0,1.45.07,1.91.07a11.62,11.62,0,0,0,1.52-.1,10.38,10.38,0,0,0,1.57-.31,7.37,7.37,0,0,0,1.48-.59,4.58,4.58,0,0,0,1.23-.93,4.14,4.14,0,0,0,.65-.91,3.87,3.87,0,0,0,.34-.95,6,6,0,0,0,.13-1c0-.31,0-.63,0-.95v-7.23h-3.7Z" transform="translate(-58.98 -99.73)"/><polygon class="cls-1" points="99.29 90.57 99.29 90.29 85.59 90.29 85.59 90.57 85.59 92.76 85.59 93.03 90.59 93.03 90.59 102.82 94.29 102.82 94.29 93.03 99.29 93.03 99.29 90.57"/><path class="cls-1" d="M163.58,192.57a3.63,3.63,0,0,1,.83-.19,7.77,7.77,0,0,1,1-.06l.53,0,.6.06c.21,0,.43.08.65.14l.6.22a1.94,1.94,0,0,1,.69.48l.31.42.11.16,3.54-.85-.46-.7h0l-.42-.5h0a5.8,5.8,0,0,0-.62-.58,5.92,5.92,0,0,0-.87-.55,7.41,7.41,0,0,0-2.13-.75,12.74,12.74,0,0,0-2.51-.22,13.86,13.86,0,0,0-1.56.09,8.91,8.91,0,0,0-1.55.34,5.83,5.83,0,0,0-1.38.65,3.59,3.59,0,0,0-1.08,1.08,3.41,3.41,0,0,0-.53,1.85,3,3,0,0,0,.52,1.81,3.93,3.93,0,0,0,1.21,1.09,5.42,5.42,0,0,0,1.42.57c.46.11.84.19,1.13.24l.75.12,1.11.17,1.09.17.7.11.49.12.42.16.3.27.1.37a.8.8,0,0,1-.29.65,2.65,2.65,0,0,1-.8.42,4.24,4.24,0,0,1-1,.19c-.35,0-.62,0-.79,0a8.48,8.48,0,0,1-1.23-.09,5.06,5.06,0,0,1-1.13-.29,3.3,3.3,0,0,1-.93-.53,2.24,2.24,0,0,1-.64-.81l-.1-.21-.23.06-3.19.8.16.3a6,6,0,0,0,1.53,1.9,7.06,7.06,0,0,0,1.88,1.06,8.49,8.49,0,0,0,1.93.47c.63.06,1.21.1,1.74.1l1,0a9.52,9.52,0,0,0,2.83-.54,4.82,4.82,0,0,0,1.36-.73,3.68,3.68,0,0,0,1-1.2,3.56,3.56,0,0,0,.39-1.77,3.12,3.12,0,0,0-.44-1.75,3.4,3.4,0,0,0-1.1-1.07,4.85,4.85,0,0,0-1.35-.57c-.45-.11-.85-.2-1.22-.27h0a7.59,7.59,0,0,0-.77-.14l-1.1-.19-1.09-.19-.7-.12c-.22,0-.42-.09-.61-.14l-.47-.2-.25-.23-.09-.36a.75.75,0,0,1,.16-.5A1.4,1.4,0,0,1,163.58,192.57Z" transform="translate(-58.98 -99.73)"/><path class="cls-1" d="M69.74,218.5c0,.27,0,.49,0,.67v.54h0l0,.38-.26-.3h0l-.35-.4-.48-.53-6.19-6.75H59v12.52h3.54v-6.87c0-.23,0-.43,0-.59v-.57l.23.28.36.42h0l.43.48,6.27,6.85H73.3V212.11H69.74Z" transform="translate(-58.98 -99.73)"/><path class="cls-1" d="M90.35,215.65a5.28,5.28,0,0,0-.46-.89,4.22,4.22,0,0,0-.44-.61h0A5.35,5.35,0,0,0,88,213a8.17,8.17,0,0,0-1.76-.77,10.77,10.77,0,0,0-1.91-.38,12.13,12.13,0,0,0-1.46-.08h-.47v0a10.88,10.88,0,0,0-2.93.51,7.08,7.08,0,0,0-2.37,1.26,5.74,5.74,0,0,0-1.57,2.06,6.35,6.35,0,0,0-.57,2.82,6.57,6.57,0,0,0,.51,2.68,5.78,5.78,0,0,0,1.54,2.1,7.15,7.15,0,0,0,2.51,1.38A11.21,11.21,0,0,0,83,225a11,11,0,0,0,3.41-.49,7,7,0,0,0,2.48-1.4A5.91,5.91,0,0,0,90.35,221a7.15,7.15,0,0,0,.5-2.72,6.52,6.52,0,0,0-.14-1.44A7.94,7.94,0,0,0,90.35,215.65Zm-7.56-1.22H83a4.55,4.55,0,0,1,1.48.24,3.73,3.73,0,0,1,2.29,2,4.16,4.16,0,0,1,.34,1.7,4.32,4.32,0,0,1-.27,1.53,3.57,3.57,0,0,1-.8,1.25,3.52,3.52,0,0,1-1.29.84,4.81,4.81,0,0,1-1.82.32,4.61,4.61,0,0,1-1.45-.2,4.43,4.43,0,0,1-1-.43,2.67,2.67,0,0,1-.6-.49l-.34-.41-.22-.3-.24-.47a3.08,3.08,0,0,1-.2-.68,4.06,4.06,0,0,1-.09-.91,4.25,4.25,0,0,1,.36-1.77,3.65,3.65,0,0,1,2.21-2A5.47,5.47,0,0,1,82.79,214.43Z" transform="translate(-58.98 -99.73)"/><path class="cls-1" d="M103.49,215.5a3.87,3.87,0,0,1,1.37-.75,5.76,5.76,0,0,1,1.76-.25,5.4,5.4,0,0,1,1.44.16,3.79,3.79,0,0,1,1,.39,3.34,3.34,0,0,1,.66.5h0l.47.5.1.11,4-.54-.52-.82a5.2,5.2,0,0,0-.45-.6,5.68,5.68,0,0,0-.65-.65,6.29,6.29,0,0,0-.91-.65,7.35,7.35,0,0,0-1.37-.63,10.9,10.9,0,0,0-1.36-.35,9.51,9.51,0,0,0-1.25-.16c-.4,0-.75,0-1.06,0l-1.12,0a9.48,9.48,0,0,0-3.57.88,6,6,0,0,0-1.8,1.29,6.24,6.24,0,0,0-1.33,2,6.58,6.58,0,0,0-.44,2.36,7.73,7.73,0,0,0,.36,2.28,5.54,5.54,0,0,0,1.26,2.18,6.52,6.52,0,0,0,2.42,1.6,10.16,10.16,0,0,0,3.77.61,10.36,10.36,0,0,0,2.87-.4,5.81,5.81,0,0,0,2-1.05v1.1h3v-7h-7.28v2.71h3.93a1.24,1.24,0,0,1-.1.2,2.42,2.42,0,0,1-.65.68,4.81,4.81,0,0,1-1.4.7,6,6,0,0,1-1.92.29,5.53,5.53,0,0,1-1.92-.3,4.25,4.25,0,0,1-1.38-.82,3.46,3.46,0,0,1-.84-1.23,4.38,4.38,0,0,1,0-3.21A3.49,3.49,0,0,1,103.49,215.5Z" transform="translate(-58.98 -99.73)"/><polygon class="cls-1" points="60.75 112.38 57.05 112.38 57.05 112.65 57.05 124.9 65.83 124.9 65.83 122.42 65.83 122.14 60.75 122.14 60.75 112.38"/><path class="cls-1" d="M140.76,215.65a6.65,6.65,0,0,0-.46-.89,4.2,4.2,0,0,0-.45-.61h0a5.67,5.67,0,0,0-1.43-1.2,8.17,8.17,0,0,0-1.76-.77,11.06,11.06,0,0,0-1.92-.38,12,12,0,0,0-1.45-.08h-.47v0a10.88,10.88,0,0,0-2.93.51,7.08,7.08,0,0,0-2.37,1.26,5.74,5.74,0,0,0-1.57,2.06,6.49,6.49,0,0,0-.58,2.82,6.74,6.74,0,0,0,.52,2.68,5.67,5.67,0,0,0,1.54,2.1,7.15,7.15,0,0,0,2.51,1.38,11.21,11.21,0,0,0,3.42.48,11,11,0,0,0,3.41-.49,7,7,0,0,0,2.48-1.4,6,6,0,0,0,1.51-2.16,7.15,7.15,0,0,0,.5-2.72,6.5,6.5,0,0,0-.15-1.44A6.9,6.9,0,0,0,140.76,215.65Zm-7.56-1.22h.18a4.55,4.55,0,0,1,1.48.24,4,4,0,0,1,1.36.77,3.75,3.75,0,0,1,.92,1.27,4,4,0,0,1,.35,1.7,4.32,4.32,0,0,1-.27,1.53,3.72,3.72,0,0,1-.8,1.25,3.61,3.61,0,0,1-1.29.84,4.81,4.81,0,0,1-1.82.32,4.68,4.68,0,0,1-1.46-.2,4.53,4.53,0,0,1-1-.43,3,3,0,0,1-.61-.49l-.34-.42-.21-.29-.24-.47a3.08,3.08,0,0,1-.2-.68,4.06,4.06,0,0,1-.09-.91,4,4,0,0,1,.36-1.77,3.65,3.65,0,0,1,2.21-2A5.47,5.47,0,0,1,133.2,214.43Z" transform="translate(-58.98 -99.73)"/><path class="cls-1" d="M154.11,219.4a3.56,3.56,0,0,0,1.19-.58,2.91,2.91,0,0,0,1-1.35,4.28,4.28,0,0,0,.28-1.51,4.62,4.62,0,0,0-.18-1.22,3.2,3.2,0,0,0-.7-1.27h0a4,4,0,0,0-.89-.73,4.46,4.46,0,0,0-1-.42,4.53,4.53,0,0,0-1-.18q-.51,0-1,0H142.9v12.52h3.7v-4.82h3.1l3.34,4.82h4.4l-3.87-5.11ZM152.33,217l-.5.14-.54,0H146.6v-2.4h4.55a4.21,4.21,0,0,1,.7,0l.43.11.24.15.15.14.16.41,0,.39a1.13,1.13,0,0,1-.14.62Z" transform="translate(-58.98 -99.73)"/><polygon class="cls-1" points="105.5 117.09 105.44 117.18 105.32 117.01 101.92 112.38 97.35 112.38 97.7 112.82 103.57 120.22 103.57 124.9 107.27 124.9 107.27 120.22 113.52 112.38 108.99 112.38 105.5 117.09"/></svg>