<?xml version="1.0" encoding="utf-8"?>
<!-- Generator: Adobe Illustrator 25.2.1, SVG Export Plug-In . SVG Version: 6.00 Build 0)  -->
<svg version="1.1" id="Capa_1" xmlns="http://www.w3.org/2000/svg" xmlns:xlink="http://www.w3.org/1999/xlink" x="0px" y="0px"
	 viewBox="0 0 375 400" style="enable-background:new 0 0 375 400;" xml:space="preserve">
<style type="text/css">
	.st0{fill:#323131;}
</style>
<g>
	<g>
		<path class="st0" d="M128.2,172.7c2.8,4,4.3,8.5,1.4,12.8c-1.2,1.7-2.8,3.1-4.2,4.7c-1.3,1.5-2.3,3.3-2.3,5.2c0,0.1,0,0.3,0,0.4
			c0.6,6.8,9.8,2.6,13.6,3.2c5.9,0.9,9.3,7,15.6,7.5c4.6,0.4,7.9-1.3,12.5-1.7c13.5-1.2,24.2,10.8,25.1,11.7
			c4.1,4.3,8.5,10.5,5.1,15.4c-1.3,1.8-3.4,3-4.7,4.8c-3.6,5.5,3.6,11.6,8.2,15.6c4.9,4.3-1.9,8.9-14.5-2.3c-3.9-3.4-4.2-9.8-1.4-14
			c1.1-1.7,2.7-3.2,3.3-5.1c1.3-4-1.9-7.9-4.9-10.9c-4.5-4.6-10.4-9.5-16.7-8c-3.3,0.8-6.1,3.4-9.6,3.6c-4.8,0.2-8.2-4.1-11.8-7.3
			c-2.7-2.4-6.6-4.2-10.1-2.3c-3.2,1.8-2.5,4.2-2.4,7.2c0.2,4.1,0.6,6.3-2.1,10c-2.1,2.9-4.7,6-4.3,9.6c0.3,3.3,3,5.8,5.2,8.3
			c7.9,9.1-3.4,11-5,18.9c-1.3,6.5,8.1,10.5,9.7,16.9c1.3,5.3-0.8,12.9,4.2,15.8c4.5,2.6,10.8-1.6,15.8-0.8c7,1.1,12,7.6,19.5,7.8
			c4.9,0.2,9.2-2.5,13.4-4.5c3.4-1.6,7.1-3,10.9-3.1c8.6-0.3,14.1,9.7,23.1,6.6c6.5-2.2,9.8-8.5,14.4-13c4.4-4.4,14.8-7.4,14.3-14.7
			c-0.3-3.8-3.7-7.6-4.2-11.7c-1.7-12.3,9.5-20.5,1.5-32.1c-2.8-4-4.3-8.5-1.4-12.8c0.7-1.1,1.6-2,2.5-2.9c1.9-1.8,3.7-3.9,3.7-6.5
			c0.1-4.5-4.7-4.5-8-4.2c-4.9,0.4-8.5,1.2-12.9-1.6c-8.3-5.4-12-9-22.3-3.4c-7.7,3.3-20.7-9.5-23.4-12.3
			c-4.1-4.3-8.5-10.5-5.1-15.4c1.3-1.8,3.4-3,4.7-4.8c3.6-5.5-3.6-11.6-8.2-15.6c-4.9-4.3,1.9-8.9,14.5,2.3c3.9,3.4,4.2,9.8,1.4,14
			c-1.1,1.7-2.7,3.2-3.3,5.1c-1.3,4,1.9,7.9,4.9,10.9c4.5,4.6,10.4,9.5,16.7,8c3.3-0.8,6.1-3.4,9.6-3.6c4.8-0.2,8.2,4.1,11.8,7.3
			c2.7,2.4,6.6,4.2,10.1,2.3c3.2-1.8,2.5-4.2,2.4-7.2c-0.2-4.1-0.6-6.3,2.1-10c2.1-2.9,4.7-6,4.3-9.6c-0.3-3.3-3-5.8-5.2-8.3
			c-7.9-9.1,3.4-11,5-18.9c1.3-6.5-8.1-10.5-9.7-16.9c-1.3-5.3,0.8-12.9-4.2-15.8c-4.5-2.6-10.8,1.6-15.8,0.8
			c-7-1.1-12-7.6-19.5-7.8c-4.9-0.2-9.2,2.5-13.4,4.5c-3.4,1.6-7.1,3-10.9,3.1c-8.6,0.3-14.1-9.7-23.1-6.6c-6.5,2.2-9.8,8.5-14.4,13
			c-4.4,4.4-14.8,7.4-14.3,14.7c0.3,3.8,3.7,7.6,4.2,11.7C131.4,152.8,120.2,161.1,128.2,172.7z"/>
	</g>
	<g>
		<path class="st0" d="M21.6,200.1c0,0.3,0,0.5,0,0.7l0,0.5v0l0,0.4l-0.3-0.3l0,0L21,201c-0.1-0.1-0.3-0.3-0.5-0.5l-6.2-6.8h-3.5
			v0.3v12.2h3.5v-6.9c0-0.2,0-0.4,0-0.6l0-0.4l0-0.1l0.2,0.3l0.4,0.4l0,0l0.4,0.5l6.3,6.8h3.5v-12.5h-3.6V200.1z"/>
		<path class="st0" d="M42.2,197.3c-0.1-0.3-0.3-0.6-0.5-0.9c-0.2-0.2-0.3-0.4-0.4-0.6l0,0c0,0,0,0,0,0c0,0,0,0,0,0l0,0
			c-0.4-0.5-0.9-0.9-1.4-1.2c-0.5-0.3-1.1-0.6-1.8-0.8c-0.6-0.2-1.3-0.3-1.9-0.4c-0.5-0.1-1-0.1-1.5-0.1l-0.5,0l0,0.3l0-0.3
			c-1,0-2,0.2-2.9,0.5c-0.9,0.3-1.7,0.7-2.4,1.3c-0.7,0.6-1.2,1.2-1.6,2.1c-0.4,0.8-0.6,1.8-0.6,2.8c0,1,0.2,1.9,0.5,2.7
			c0.3,0.8,0.9,1.5,1.5,2.1c0.7,0.6,1.5,1,2.5,1.4c1,0.3,2.1,0.5,3.4,0.5c1.3,0,2.4-0.2,3.4-0.5c1-0.3,1.8-0.8,2.5-1.4
			c0.7-0.6,1.2-1.3,1.5-2.2c0.3-0.8,0.5-1.7,0.5-2.7c0-0.5,0-1-0.1-1.4C42.4,198,42.3,197.6,42.2,197.3z M34.6,196.1l0.2,0
			c0.5,0,1,0.1,1.5,0.2c0.5,0.2,1,0.4,1.4,0.8c0.4,0.3,0.7,0.8,0.9,1.3c0.2,0.5,0.3,1.1,0.3,1.7c0,0.5-0.1,1.1-0.3,1.5
			c-0.2,0.5-0.4,0.9-0.8,1.2c-0.3,0.4-0.8,0.6-1.3,0.8c-0.5,0.2-1.1,0.3-1.8,0.3c-0.6,0-1.1-0.1-1.5-0.2c-0.4-0.1-0.7-0.3-1-0.4
			c-0.3-0.2-0.5-0.3-0.6-0.5l-0.3-0.4l-0.2-0.3l-0.2-0.5c-0.1-0.2-0.1-0.4-0.2-0.7c-0.1-0.3-0.1-0.6-0.1-0.9c0-0.7,0.1-1.3,0.4-1.8
			c0.2-0.5,0.5-0.9,0.9-1.2c0.4-0.3,0.8-0.6,1.3-0.7C33.6,196.2,34.1,196.1,34.6,196.1z"/>
		<path class="st0" d="M55.3,197.1c0.4-0.3,0.8-0.6,1.4-0.7c0.5-0.2,1.1-0.3,1.8-0.3c0.6,0,1,0.1,1.4,0.2c0.4,0.1,0.7,0.2,1,0.4
			c0.3,0.2,0.5,0.3,0.7,0.5l0,0l0.5,0.5l0.1,0.1l4-0.5l-0.5-0.8c-0.1-0.2-0.3-0.4-0.4-0.6c-0.2-0.2-0.4-0.4-0.6-0.7
			c-0.3-0.2-0.6-0.4-0.9-0.6c-0.4-0.3-0.9-0.5-1.4-0.6c-0.5-0.2-0.9-0.3-1.4-0.4c-0.4-0.1-0.9-0.1-1.3-0.2c-0.4,0-0.7,0-1.1,0
			c-0.3,0-0.6,0-1.1,0c-0.5,0-1.1,0.1-1.7,0.2c-0.6,0.1-1.2,0.4-1.9,0.6c-0.7,0.3-1.3,0.7-1.8,1.3c-0.6,0.6-1,1.3-1.3,2.1
			c-0.3,0.8-0.4,1.5-0.4,2.4c0,0.7,0.1,1.5,0.4,2.3c0.2,0.8,0.7,1.5,1.3,2.2c0.6,0.7,1.4,1.2,2.4,1.6c1,0.4,2.3,0.6,3.8,0.6
			c1,0,1.9-0.1,2.9-0.4c0.8-0.2,1.4-0.6,2-1v0.8v0.3h2.7H66v-7h-7.3v2.4v0.3h3.9c0,0.1-0.1,0.1-0.1,0.2c-0.1,0.2-0.3,0.4-0.7,0.7
			c-0.4,0.3-0.8,0.5-1.4,0.7c-0.6,0.2-1.2,0.3-1.9,0.3c-0.7,0-1.4-0.1-1.9-0.3c-0.6-0.2-1-0.5-1.4-0.8c-0.4-0.3-0.7-0.8-0.8-1.2
			c-0.2-0.5-0.3-1-0.3-1.5c0-0.6,0.1-1.2,0.3-1.7C54.6,197.9,54.9,197.5,55.3,197.1z"/>
		<path class="st0" d="M78.7,200.9L78.7,200.9l0,0.2l0,0.5l-0.1,0.5l-0.2,0.3l-0.2,0.2c-0.2,0.2-0.5,0.4-0.8,0.6
			c-0.3,0.1-0.8,0.2-1.4,0.3l-0.6,0c-0.3,0-1.1,0-1.3,0c-0.4,0-0.9-0.1-1.3-0.4c-0.3-0.1-0.5-0.3-0.6-0.4l-0.4-0.5
			c-0.1-0.2-0.2-0.4-0.2-0.6c0-0.2-0.1-0.5-0.1-0.7v-7.3h-3.7v0.3v7c0,0.4,0,0.7,0,1.1c0,0.4,0.1,0.8,0.2,1.2
			c0.1,0.4,0.3,0.8,0.6,1.2c0.3,0.4,0.7,0.7,1.2,1.1c0.4,0.3,0.8,0.5,1.2,0.6c0.4,0.1,0.7,0.2,1.1,0.3c0.4,0.1,0.9,0.2,1.3,0.2
			c0.4,0,1.5,0.1,1.9,0.1c0.5,0,1,0,1.5-0.1c0.5-0.1,1.1-0.2,1.6-0.3c0.5-0.1,1-0.3,1.5-0.6c0.5-0.2,0.9-0.6,1.2-0.9
			c0.3-0.3,0.5-0.6,0.7-0.9c0.2-0.3,0.3-0.6,0.3-0.9c0.1-0.3,0.1-0.6,0.1-1c0-0.3,0-0.6,0-1v-7.2h-3.7V200.9z"/>
		<polygon class="st0" points="97.1,194 97.1,193.7 83.4,193.7 83.4,194 83.4,196.2 83.4,196.5 88.4,196.5 88.4,206.3 92.1,206.3 
			92.1,196.5 97.1,196.5 		"/>
		<path class="st0" d="M102.5,196.3c0.2-0.1,0.5-0.2,0.8-0.2c0.3,0,0.6-0.1,1-0.1l0.5,0c0.2,0,0.4,0,0.6,0.1c0.2,0,0.4,0.1,0.7,0.1
			l0.6,0.2c0.4,0.2,0.6,0.3,0.7,0.5l0.3,0.4l0.1,0.2l3.5-0.8l-0.5-0.7l0,0l-0.4-0.5l0,0c-0.2-0.2-0.4-0.4-0.6-0.6
			c-0.2-0.2-0.5-0.4-0.9-0.6c-0.7-0.4-1.4-0.6-2.1-0.7c-0.7-0.1-1.6-0.2-2.5-0.2c-0.5,0-1,0-1.6,0.1c-0.5,0.1-1.1,0.2-1.5,0.3
			c-0.5,0.2-1,0.4-1.4,0.7c-0.4,0.3-0.8,0.6-1.1,1.1c-0.4,0.6-0.5,1.2-0.5,1.8c0,0.7,0.2,1.3,0.5,1.8c0.3,0.5,0.7,0.8,1.2,1.1
			c0.5,0.3,0.9,0.5,1.4,0.6c0.5,0.1,0.8,0.2,1.1,0.2c0.1,0,0.4,0.1,0.7,0.1c0.4,0.1,0.7,0.1,1.1,0.2c0.4,0.1,0.8,0.1,1.1,0.2
			c0.3,0.1,0.6,0.1,0.7,0.1l0.5,0.1l0.4,0.2l0.3,0.3l0.1,0.4c0,0.3-0.1,0.5-0.3,0.6c-0.2,0.2-0.5,0.3-0.8,0.4
			c-0.3,0.1-0.6,0.2-1,0.2c-0.3,0-0.6,0-0.8,0c-0.4,0-0.8,0-1.2-0.1c-0.4-0.1-0.8-0.2-1.1-0.3c-0.3-0.1-0.7-0.3-0.9-0.5
			c-0.3-0.2-0.5-0.5-0.6-0.8l-0.1-0.2l-0.2,0.1l-3.2,0.8l0.2,0.3c0.4,0.8,0.9,1.4,1.5,1.9c0.6,0.5,1.2,0.8,1.9,1.1
			c0.6,0.2,1.3,0.4,1.9,0.5c0.6,0.1,1.2,0.1,1.7,0.1c0.3,0,0.6,0,1,0c0.4,0,0.9-0.1,1.4-0.2c0.5-0.1,1-0.2,1.5-0.4
			c0.5-0.2,1-0.4,1.4-0.7c0.4-0.3,0.8-0.7,1-1.2c0.3-0.5,0.4-1.1,0.4-1.8c0-0.7-0.1-1.3-0.4-1.8c-0.3-0.4-0.7-0.8-1.1-1.1
			c-0.4-0.3-0.9-0.4-1.4-0.6c-0.4-0.1-0.9-0.2-1.2-0.3v0c-0.2,0-0.4-0.1-0.8-0.1c-0.4-0.1-0.7-0.1-1.1-0.2c-0.4-0.1-0.7-0.1-1.1-0.2
			c-0.3-0.1-0.6-0.1-0.7-0.1c-0.2,0-0.4-0.1-0.6-0.1l-0.5-0.2l-0.3-0.2l-0.1-0.4c0-0.2,0.1-0.4,0.2-0.5
			C102.1,196.5,102.2,196.4,102.5,196.3z"/>
	</g>
	<g>
		<path class="st0" d="M270.4,200.1c0,0.3,0,0.5,0,0.7l0,0.5v0l0,0.4l-0.3-0.3l0,0l-0.4-0.4c-0.1-0.1-0.3-0.3-0.5-0.5l-6.2-6.8
			l-3.5,0v0.3l0,12.2h3.5v-6.9c0-0.2,0-0.4,0-0.6l0-0.4l0-0.1l0.2,0.3l0.4,0.4l0,0l0.4,0.5l6.3,6.8h3.5v-12.5l-3.6,0V200.1z"/>
		<path class="st0" d="M291,197.3c-0.1-0.3-0.3-0.6-0.5-0.9c-0.2-0.2-0.3-0.4-0.4-0.6l0,0c0,0,0,0,0,0s0,0,0,0l0,0
			c-0.4-0.5-0.9-0.9-1.4-1.2c-0.5-0.3-1.1-0.6-1.8-0.8c-0.6-0.2-1.3-0.3-1.9-0.4c-0.5-0.1-1-0.1-1.5-0.1l-0.5,0l0,0.3l0-0.3
			c-1,0-2,0.2-2.9,0.5c-0.9,0.3-1.7,0.7-2.4,1.3c-0.7,0.6-1.2,1.2-1.6,2.1c-0.4,0.8-0.6,1.8-0.6,2.8c0,1,0.2,1.9,0.5,2.7
			c0.3,0.8,0.9,1.5,1.5,2.1c0.7,0.6,1.5,1,2.5,1.4c1,0.3,2.1,0.5,3.4,0.5c1.3,0,2.4-0.2,3.4-0.5c1-0.3,1.8-0.8,2.5-1.4
			c0.7-0.6,1.2-1.3,1.5-2.2c0.3-0.8,0.5-1.7,0.5-2.7c0-0.5,0-1-0.1-1.4C291.3,198,291.2,197.6,291,197.3z M283.5,196.1l0.2,0
			c0.5,0,1,0.1,1.5,0.2c0.5,0.2,1,0.4,1.4,0.8c0.4,0.3,0.7,0.8,0.9,1.3c0.2,0.5,0.3,1.1,0.3,1.7c0,0.5-0.1,1.1-0.3,1.5
			c-0.2,0.5-0.4,0.9-0.8,1.2c-0.3,0.4-0.8,0.6-1.3,0.8c-0.5,0.2-1.1,0.3-1.8,0.3c-0.6,0-1.1-0.1-1.5-0.2c-0.4-0.1-0.7-0.3-1-0.4
			c-0.3-0.2-0.5-0.3-0.6-0.5l-0.3-0.4l-0.2-0.3l-0.2-0.5c-0.1-0.2-0.1-0.4-0.2-0.7c-0.1-0.3-0.1-0.6-0.1-0.9c0-0.7,0.1-1.3,0.4-1.8
			c0.2-0.5,0.5-0.9,0.9-1.2c0.4-0.3,0.8-0.6,1.3-0.7C282.5,196.2,283,196.1,283.5,196.1z"/>
		<path class="st0" d="M304.2,197.1c0.4-0.3,0.8-0.6,1.4-0.8c0.5-0.2,1.1-0.3,1.8-0.3c0.6,0,1,0.1,1.4,0.2c0.4,0.1,0.7,0.2,1,0.4
			c0.3,0.2,0.5,0.3,0.7,0.5l0,0l0.5,0.5l0.1,0.1l4-0.5l-0.5-0.8c-0.1-0.2-0.3-0.4-0.4-0.6c-0.2-0.2-0.4-0.4-0.6-0.7
			c-0.3-0.2-0.6-0.4-0.9-0.6c-0.4-0.3-0.9-0.5-1.4-0.6c-0.5-0.2-0.9-0.3-1.4-0.4c-0.4-0.1-0.9-0.1-1.3-0.2c-0.4,0-0.7,0-1.1,0
			c-0.3,0-0.6,0-1.1,0c-0.5,0-1.1,0.1-1.7,0.2c-0.6,0.1-1.2,0.4-1.9,0.6c-0.7,0.3-1.3,0.7-1.8,1.3c-0.6,0.6-1,1.3-1.3,2.1
			c-0.3,0.8-0.4,1.5-0.4,2.4c0,0.7,0.1,1.5,0.4,2.3c0.2,0.8,0.7,1.5,1.3,2.2c0.6,0.7,1.4,1.2,2.4,1.6c1,0.4,2.3,0.6,3.8,0.6
			c1,0,1.9-0.1,2.9-0.4c0.8-0.2,1.4-0.6,2-1v0.8v0.3h2.7h0.3v-7l-7.3,0v2.4v0.3h3.9c0,0.1-0.1,0.1-0.1,0.2c-0.1,0.2-0.3,0.4-0.7,0.7
			c-0.4,0.3-0.8,0.5-1.4,0.7c-0.6,0.2-1.2,0.3-1.9,0.3c-0.7,0-1.4-0.1-1.9-0.3c-0.6-0.2-1-0.5-1.4-0.8c-0.4-0.3-0.7-0.8-0.8-1.2
			c-0.2-0.5-0.3-1-0.3-1.5c0-0.6,0.1-1.2,0.3-1.7C303.5,197.9,303.8,197.5,304.2,197.1z"/>
		<polygon class="st0" points="320.4,193.7 316.7,193.7 316.7,194 316.7,206.3 325.5,206.3 325.5,203.8 325.5,203.5 320.4,203.5 		
			"/>
		<path class="st0" d="M341.5,197.3c-0.1-0.3-0.3-0.6-0.5-0.9c-0.2-0.2-0.3-0.4-0.4-0.6l0,0c0,0,0,0,0,0c0,0,0,0,0,0l0,0
			c-0.4-0.5-0.9-0.9-1.4-1.2c-0.5-0.3-1.1-0.6-1.8-0.8c-0.6-0.2-1.3-0.3-1.9-0.4c-0.5-0.1-1-0.1-1.5-0.1l-0.5,0l0,0.3l0-0.3
			c-1,0-2,0.2-2.9,0.5c-0.9,0.3-1.7,0.7-2.4,1.3c-0.7,0.6-1.2,1.2-1.6,2.1c-0.4,0.8-0.6,1.8-0.6,2.8c0,1,0.2,1.9,0.5,2.7
			c0.3,0.8,0.9,1.5,1.5,2.1c0.7,0.6,1.5,1,2.5,1.4c1,0.3,2.1,0.5,3.4,0.5c1.3,0,2.4-0.2,3.4-0.5c1-0.3,1.8-0.8,2.5-1.4
			c0.7-0.6,1.2-1.3,1.5-2.2c0.3-0.8,0.5-1.7,0.5-2.7c0-0.5,0-1-0.1-1.4C341.7,198,341.6,197.6,341.5,197.3z M333.9,196.1l0.2,0
			c0.5,0,1,0.1,1.5,0.2c0.5,0.2,1,0.4,1.4,0.8c0.4,0.3,0.7,0.8,0.9,1.3c0.2,0.5,0.3,1.1,0.3,1.7c0,0.5-0.1,1.1-0.3,1.5
			c-0.2,0.5-0.4,0.9-0.8,1.2c-0.3,0.4-0.8,0.6-1.3,0.8c-0.5,0.2-1.1,0.3-1.8,0.3c-0.6,0-1.1-0.1-1.5-0.2c-0.4-0.1-0.7-0.3-1-0.4
			c-0.3-0.2-0.5-0.3-0.6-0.5l-0.3-0.4l-0.2-0.3l-0.2-0.5c-0.1-0.2-0.1-0.4-0.2-0.7c-0.1-0.3-0.1-0.6-0.1-0.9c0-0.7,0.1-1.3,0.4-1.8
			c0.2-0.5,0.5-0.9,0.9-1.2c0.4-0.3,0.8-0.6,1.3-0.7C332.9,196.2,333.4,196.1,333.9,196.1z"/>
		<path class="st0" d="M354.8,201c0.4-0.1,0.8-0.3,1.2-0.6c0.5-0.4,0.8-0.8,1-1.3c0.2-0.5,0.3-1,0.3-1.5c0-0.4-0.1-0.8-0.2-1.2
			c-0.1-0.5-0.4-0.9-0.7-1.3l0,0c-0.3-0.3-0.6-0.5-0.9-0.7c-0.3-0.2-0.6-0.3-1-0.4c-0.3-0.1-0.7-0.2-1-0.2c-0.3,0-0.7,0-1.1,0
			l-8.9,0v0.3l0,12.2h3.7l0-4.8h3.1l3.3,4.8l4.4,0l-3.9-5.1C354.4,201.1,354.6,201.1,354.8,201z M353,198.6l-0.5,0.1
			c-0.2,0-0.4,0-0.5,0h-4.7v-2.4h4.6c0.3,0,0.5,0,0.7,0l0.4,0.1l0.2,0.1l0.1,0.1l0.2,0.4l0,0.4c0,0.3-0.1,0.5-0.1,0.6L353,198.6z"/>
		<polygon class="st0" points="365.2,198.4 365.1,198.5 365,198.4 361.6,193.7 357,193.7 357.4,194.2 363.2,201.6 363.2,206.3 
			366.9,206.3 366.9,201.6 373.2,193.7 368.7,193.7 		"/>
	</g>
</g>
</svg>
